<mxfile host="app.diagrams.net" modified="2024-07-09T02:14:28.284Z" agent="Mozilla/5.0 (Windows NT 10.0; Win64; x64) AppleWebKit/537.36 (KHTML, like Gecko) Chrome/126.0.0.0 Safari/537.36" etag="W2eO2s0P0QVbetUW2BeG" version="24.6.4" type="github" pages="3">
  <diagram id="C5RBs43oDa-KdzZeNtuy" name="Page-1">
    <mxGraphModel dx="788" dy="496" grid="1" gridSize="10" guides="1" tooltips="1" connect="1" arrows="1" fold="1" page="1" pageScale="1" pageWidth="827" pageHeight="1169" math="0" shadow="0">
      <root>
        <mxCell id="WIyWlLk6GJQsqaUBKTNV-0" />
        <mxCell id="WIyWlLk6GJQsqaUBKTNV-1" parent="WIyWlLk6GJQsqaUBKTNV-0" />
        <mxCell id="0wKyU0hb861yDEEXM_V6-3" style="edgeStyle=orthogonalEdgeStyle;rounded=0;orthogonalLoop=1;jettySize=auto;html=1;entryX=0.5;entryY=0;entryDx=0;entryDy=0;" edge="1" parent="WIyWlLk6GJQsqaUBKTNV-1" source="0wKyU0hb861yDEEXM_V6-0" target="0wKyU0hb861yDEEXM_V6-1">
          <mxGeometry relative="1" as="geometry" />
        </mxCell>
        <mxCell id="0wKyU0hb861yDEEXM_V6-0" value="点击系统开关的开启/关闭开关" style="ellipse;whiteSpace=wrap;html=1;" vertex="1" parent="WIyWlLk6GJQsqaUBKTNV-1">
          <mxGeometry x="195" y="90" width="90" height="60" as="geometry" />
        </mxCell>
        <mxCell id="0wKyU0hb861yDEEXM_V6-4" style="edgeStyle=orthogonalEdgeStyle;rounded=0;orthogonalLoop=1;jettySize=auto;html=1;" edge="1" parent="WIyWlLk6GJQsqaUBKTNV-1" source="0wKyU0hb861yDEEXM_V6-1" target="0wKyU0hb861yDEEXM_V6-2">
          <mxGeometry relative="1" as="geometry" />
        </mxCell>
        <mxCell id="0wKyU0hb861yDEEXM_V6-1" value="将redis中的值取反, 存入reids" style="rounded=1;whiteSpace=wrap;html=1;" vertex="1" parent="WIyWlLk6GJQsqaUBKTNV-1">
          <mxGeometry x="180" y="210" width="120" height="60" as="geometry" />
        </mxCell>
        <mxCell id="0wKyU0hb861yDEEXM_V6-2" value="结束" style="ellipse;whiteSpace=wrap;html=1;" vertex="1" parent="WIyWlLk6GJQsqaUBKTNV-1">
          <mxGeometry x="202.5" y="340" width="75" height="50" as="geometry" />
        </mxCell>
      </root>
    </mxGraphModel>
  </diagram>
  <diagram id="ValLC5Q-pJN-SgUbtyMu" name="第 2 页">
    <mxGraphModel dx="788" dy="496" grid="1" gridSize="10" guides="1" tooltips="1" connect="1" arrows="1" fold="1" page="1" pageScale="1" pageWidth="827" pageHeight="1169" math="0" shadow="0">
      <root>
        <mxCell id="0" />
        <mxCell id="1" parent="0" />
        <mxCell id="zFXIvPICOBTjqyZ1b27o-5" value="&lt;p style=&quot;margin:0px;margin-top:4px;text-align:center;&quot;&gt;&lt;b&gt;SystemSwitchEnum&lt;/b&gt;&lt;/p&gt;&lt;hr size=&quot;1&quot; style=&quot;border-style:solid;&quot;&gt;&lt;p style=&quot;margin:0px;margin-left:4px;&quot;&gt;+ key: Integer&lt;/p&gt;&lt;p style=&quot;margin:0px;margin-left:4px;&quot;&gt;+ value: String&lt;/p&gt;&lt;hr size=&quot;1&quot; style=&quot;border-style:solid;&quot;&gt;&lt;p style=&quot;margin:0px;margin-left:4px;&quot;&gt;+ getByKey(Integer key): SystemSwitchEnum&lt;/p&gt;" style="verticalAlign=top;align=left;overflow=fill;html=1;whiteSpace=wrap;" vertex="1" parent="1">
          <mxGeometry x="120" y="100" width="260" height="90" as="geometry" />
        </mxCell>
      </root>
    </mxGraphModel>
  </diagram>
  <diagram id="d6E1po7Urn5HE6oUCqIE" name="第 3 页">
    <mxGraphModel dx="1615" dy="1665" grid="1" gridSize="10" guides="1" tooltips="1" connect="1" arrows="1" fold="1" page="1" pageScale="1" pageWidth="827" pageHeight="1169" math="0" shadow="0">
      <root>
        <mxCell id="0" />
        <mxCell id="1" parent="0" />
        <mxCell id="CTYLvsOP8jANWbMFMiBe-4" value="" style="html=1;points=[[0,0,0,0,5],[0,1,0,0,-5],[1,0,0,0,5],[1,1,0,0,-5]];perimeter=orthogonalPerimeter;outlineConnect=0;targetShapes=umlLifeline;portConstraint=eastwest;newEdgeStyle={&quot;curved&quot;:0,&quot;rounded&quot;:0};" vertex="1" parent="1">
          <mxGeometry x="160" y="60" width="10" height="350" as="geometry" />
        </mxCell>
        <mxCell id="CTYLvsOP8jANWbMFMiBe-5" value="1. update(String key, Boolean switchStatus)" style="html=1;verticalAlign=bottom;endArrow=block;curved=0;rounded=0;" edge="1" parent="1" source="CTYLvsOP8jANWbMFMiBe-18">
          <mxGeometry width="80" relative="1" as="geometry">
            <mxPoint y="90" as="sourcePoint" />
            <mxPoint x="160" y="90" as="targetPoint" />
            <mxPoint as="offset" />
          </mxGeometry>
        </mxCell>
        <mxCell id="CTYLvsOP8jANWbMFMiBe-6" value=":userAction" style="rounded=1;whiteSpace=wrap;html=1;arcSize=40;fontColor=#000000;fillColor=#ffffc0;strokeColor=#ff0000;" vertex="1" parent="1">
          <mxGeometry x="105" y="-40" width="120" height="40" as="geometry" />
        </mxCell>
        <mxCell id="CTYLvsOP8jANWbMFMiBe-7" value="" style="edgeStyle=orthogonalEdgeStyle;html=1;verticalAlign=bottom;endArrow=open;endSize=8;strokeColor=#ff0000;rounded=0;" edge="1" source="CTYLvsOP8jANWbMFMiBe-6" parent="1">
          <mxGeometry relative="1" as="geometry">
            <mxPoint x="165" y="60" as="targetPoint" />
          </mxGeometry>
        </mxCell>
        <mxCell id="CTYLvsOP8jANWbMFMiBe-8" value="" style="html=1;points=[[0,0,0,0,5],[0,1,0,0,-5],[1,0,0,0,5],[1,1,0,0,-5]];perimeter=orthogonalPerimeter;outlineConnect=0;targetShapes=umlLifeline;portConstraint=eastwest;newEdgeStyle={&quot;curved&quot;:0,&quot;rounded&quot;:0};" vertex="1" parent="1">
          <mxGeometry x="160" y="130" width="10" height="40" as="geometry" />
        </mxCell>
        <mxCell id="CTYLvsOP8jANWbMFMiBe-9" value="2. 判断key枚举是否存在" style="html=1;align=left;spacingLeft=2;endArrow=block;rounded=0;edgeStyle=orthogonalEdgeStyle;curved=0;rounded=0;" edge="1" target="CTYLvsOP8jANWbMFMiBe-8" parent="1">
          <mxGeometry relative="1" as="geometry">
            <mxPoint x="165" y="110" as="sourcePoint" />
            <Array as="points">
              <mxPoint x="195" y="140" />
            </Array>
          </mxGeometry>
        </mxCell>
        <mxCell id="CTYLvsOP8jANWbMFMiBe-11" value="" style="html=1;points=[[0,0,0,0,5],[0,1,0,0,-5],[1,0,0,0,5],[1,1,0,0,-5]];perimeter=orthogonalPerimeter;outlineConnect=0;targetShapes=umlLifeline;portConstraint=eastwest;newEdgeStyle={&quot;curved&quot;:0,&quot;rounded&quot;:0};" vertex="1" parent="1">
          <mxGeometry x="380" y="195" width="10" height="80" as="geometry" />
        </mxCell>
        <mxCell id="CTYLvsOP8jANWbMFMiBe-12" value="3. 对开启的存入key, 对关闭的删除key" style="html=1;verticalAlign=bottom;endArrow=block;curved=0;rounded=0;" edge="1" parent="1">
          <mxGeometry width="80" relative="1" as="geometry">
            <mxPoint x="170" y="234.5" as="sourcePoint" />
            <mxPoint x="380" y="234.5" as="targetPoint" />
            <mxPoint as="offset" />
          </mxGeometry>
        </mxCell>
        <mxCell id="CTYLvsOP8jANWbMFMiBe-17" value="4. 返回操作成功" style="html=1;verticalAlign=bottom;endArrow=open;dashed=1;endSize=8;curved=0;rounded=0;" edge="1" parent="1">
          <mxGeometry relative="1" as="geometry">
            <mxPoint x="160" y="350" as="sourcePoint" />
            <mxPoint x="-80.5" y="350" as="targetPoint" />
          </mxGeometry>
        </mxCell>
        <mxCell id="CTYLvsOP8jANWbMFMiBe-18" value="" style="shape=umlLifeline;perimeter=lifelinePerimeter;whiteSpace=wrap;html=1;container=1;dropTarget=0;collapsible=0;recursiveResize=0;outlineConnect=0;portConstraint=eastwest;newEdgeStyle={&quot;curved&quot;:0,&quot;rounded&quot;:0};participant=umlControl;" vertex="1" parent="1">
          <mxGeometry x="-100" y="-50" width="40" height="460" as="geometry" />
        </mxCell>
      </root>
    </mxGraphModel>
  </diagram>
</mxfile>
